<svg width="32" height="32" viewBox="0 0 32 32" fill="none" xmlns="http://www.w3.org/2000/svg">
<path d="M13 6V16C13 16.2652 12.8946 16.5196 12.7071 16.7071C12.5196 16.8946 12.2652 17 12 17H2C1.73478 17 1.48043 16.8946 1.29289 16.7071C1.10536 16.5196 1 16.2652 1 16V6C1 5.73478 1.10536 5.48043 1.29289 5.29289C1.48043 5.10536 1.73478 5 2 5H12C12.2652 5 12.5196 5.10536 12.7071 5.29289C12.8946 5.48043 13 5.73478 13 6ZM30.7783 8.293L23.707 1.22168C23.6142 1.1288 23.5039 1.05512 23.3826 1.00485C23.2613 0.95458 23.1313 0.928706 23 0.928706C22.8687 0.928706 22.7386 0.95458 22.6173 1.00485C22.496 1.05512 22.3858 1.1288 22.2929 1.22168L15.2217 8.293C15.1288 8.38583 15.0551 8.49605 15.0048 8.61737C14.9546 8.73868 14.9287 8.86871 14.9287 9.00003C14.9287 9.13135 14.9546 9.26138 15.0048 9.38269C15.0551 9.50401 15.1288 9.61423 15.2217 9.70706L22.293 16.7783C22.3858 16.8712 22.4961 16.9449 22.6174 16.9951C22.7387 17.0454 22.8687 17.0713 23 17.0713C23.1313 17.0713 23.2614 17.0454 23.3827 16.9951C23.504 16.9449 23.6142 16.8712 23.7071 16.7783L30.7783 9.707C30.8712 9.61417 30.9449 9.50395 30.9951 9.38264C31.0454 9.26133 31.0713 9.13131 31.0713 9C31.0713 8.86869 31.0454 8.73867 30.9951 8.61736C30.9449 8.49605 30.8712 8.38583 30.7783 8.293ZM12 19H2C1.73478 19 1.48043 19.1054 1.29289 19.2929C1.10536 19.4804 1 19.7348 1 20V30C1 30.2652 1.10536 30.5196 1.29289 30.7071C1.48043 30.8946 1.73478 31 2 31H12C12.2652 31 12.5196 30.8946 12.7071 30.7071C12.8946 30.5196 13 30.2652 13 30V20C13 19.7348 12.8946 19.4804 12.7071 19.2929C12.5196 19.1054 12.2652 19 12 19ZM26 19H16C15.7348 19 15.4804 19.1054 15.2929 19.2929C15.1054 19.4804 15 19.7348 15 20V30C15 30.2652 15.1054 30.5196 15.2929 30.7071C15.4804 30.8946 15.7348 31 16 31H26C26.2652 31 26.5196 30.8946 26.7071 30.7071C26.8946 30.5196 27 30.2652 27 30V20C27 19.7348 26.8946 19.4804 26.7071 19.2929C26.5196 19.1054 26.2652 19 26 19Z" fill="white"/>
</svg>
