<svg width="24" height="24" viewBox="0 0 24 24" fill="none" xmlns="http://www.w3.org/2000/svg">
<g clip-path="url(#clip0_20_34)">
<path d="M23.4915 18.584C23.1661 18.2207 22.1658 17.3151 21.4496 16.7756C20.7465 16.2229 19.5947 15.4753 19.1462 15.2437C18.4135 14.8626 17.3096 14.9053 16.6238 15.366C16.0602 15.7582 15.5382 16.2071 15.0661 16.7057L15.0558 16.7165C14.798 16.989 14.4517 17.1609 14.0788 17.2017C13.7059 17.2425 13.3307 17.1494 13.0201 16.9392C11.852 16.1427 10.7618 15.2375 9.76412 14.2359C8.76246 13.2382 7.85734 12.148 7.06084 10.98C6.85058 10.6693 6.75754 10.2941 6.79832 9.92117C6.8391 9.54829 7.01106 9.20202 7.28349 8.94417L7.29427 8.93386C7.79287 8.46176 8.24177 7.93982 8.63396 7.3762C9.09474 6.69042 9.1374 5.58652 8.75631 4.85386C8.52474 4.40573 7.77709 3.25542 7.22443 2.55042C6.68443 1.83417 5.77927 0.833859 5.41599 0.508547C4.82302 -0.0258282 3.82131 -0.165047 3.1224 0.215578C2.53533 0.548992 1.98536 0.943867 1.48177 1.39355L1.42881 1.44042C-1.66119 4.0987 0.373181 11.5185 6.43177 17.5654C12.4819 23.625 19.8999 25.6607 22.5582 22.5707L22.6051 22.5178C23.0549 22.0143 23.4498 21.4643 23.783 20.8771C24.1651 20.1787 24.0258 19.177 23.4915 18.584Z" fill="white"/>
</g>
<defs>
<clipPath id="clip0_20_34">
<rect width="24" height="24" fill="white"/>
</clipPath>
</defs>
</svg>
