<svg width="32" height="32" viewBox="0 0 32 32" fill="none" xmlns="http://www.w3.org/2000/svg">
<path d="M26.6666 3.2H5.33345C4.16033 3.2 3.20001 4.16032 3.20001 5.33344V22.4C3.20001 23.5728 4.16033 24.5334 5.33345 24.5334H14.9335V26.6666H11.7335C10.5552 26.6666 9.60001 27.6208 9.60001 28.8L22.4 28.7978C22.4 27.6208 21.4448 26.6646 20.2666 26.6646H17.0666V24.5334H26.6666C27.8397 24.5334 28.8 23.5728 28.8 22.4V5.33344C28.8 4.16032 27.8397 3.2 26.6666 3.2ZM11.8896 16.4688L10.7584 17.6L7.77889 14.6208C7.36225 14.2038 7.36225 13.529 7.77889 13.1123L10.7584 10.1331L11.8896 11.2643L9.28737 13.8662L11.8896 16.4688ZM15.7533 18.6666H14.1127L16.2471 9.06656H17.8877L15.7533 18.6666ZM24.2208 14.6208L21.2416 17.6L20.1104 16.4688L22.7127 13.8666L20.1104 11.2646L21.2416 10.1334L24.2211 13.1126C24.6375 13.527 24.6375 14.2042 24.2208 14.6208Z" fill="#A855F7"/>
</svg>
