<svg xmlns="http://www.w3.org/2000/svg" version="1.1" xmlns:xlink="http://www.w3.org/1999/xlink" width="512" height="512" x="0" y="0" viewBox="0 0 512 512" style="enable-background:new 0 0 512 512" xml:space="preserve" class=""><g><path d="M262 152c-22.1 0-40-17.9-40-40s17.9-40 40-40 40 17.9 40 40-17.9 40-40 40zm-79.9 30.1c14.4-14.4 14.4-37.9 0-52.3-7-7-16.3-10.8-26.2-10.8s-19.2 3.9-26.2 10.8c-7 7-10.8 16.3-10.8 26.2s3.8 19.2 10.8 26.2S146 193 155.9 193s19.2-3.9 26.2-10.9zM146 262c0-18.8-15.2-34-34-34s-34 15.2-34 34 15.2 34 34 34 34-15.2 34-34zm31.9 128c5.9-5.9 9.1-13.6 9.1-21.9s-3.2-16.1-9.1-21.9c-5.9-5.9-13.6-9.1-21.9-9.1s-16.1 3.2-21.9 9.1c-12.1 12.1-12.1 31.8 0 43.8 5.8 5.9 13.6 9.1 21.9 9.1s16-3.3 21.9-9.1zM290 412c0-15.4-12.6-28-28-28s-28 12.6-28 28 12.6 28 28 28 28-12.6 28-28zm95.7-26.3c4.7-4.7 7.3-11 7.3-17.7s-2.6-13-7.3-17.7-11-7.3-17.7-7.3-13 2.6-17.7 7.3-7.3 11-7.3 17.7 2.6 13 7.3 17.7 11 7.3 17.7 7.3 13-2.5 17.7-7.3zM434 262c0-12.1-9.9-22-22-22s-22 9.9-22 22 9.9 22 22 22 22-9.9 22-22zm-52.5-92.6c3.6-3.6 5.6-8.4 5.6-13.4 0-5.1-2-9.8-5.6-13.4s-8.4-5.6-13.4-5.6-9.9 2-13.4 5.6c-3.6 3.6-5.6 8.4-5.6 13.4 0 5.1 2 9.9 5.6 13.4s8.4 5.6 13.4 5.6 9.8-2 13.4-5.6z" fill="#7F51F0" opacity="1" data-original="#000000"></path></g></svg>