<svg width="32" height="32" viewBox="0 0 32 32" fill="none" xmlns="http://www.w3.org/2000/svg">
<path d="M16 8.98499C15.273 8.98499 13.987 11.246 13.787 15H18.213C18.013 11.246 16.727 8.98499 16 8.98499Z" fill="#A855F7"/>
<path d="M11.785 15C11.879 13.063 12.245 11.183 12.874 9.72998C10.858 10.739 9.39804 12.687 9.06604 15H11.785Z" fill="#A855F7"/>
<path d="M13.787 17C13.987 20.754 15.273 23.015 16 23.015C16.727 23.015 18.013 20.754 18.213 17H13.787Z" fill="#A855F7"/>
<path d="M20.215 15H22.935C22.603 12.687 21.142 10.739 19.127 9.72998C19.755 11.183 20.121 13.063 20.215 15Z" fill="#A855F7"/>
<path d="M16 2C8.268 2 2 8.268 2 16C2 23.732 8.268 30 16 30C23.732 30 30 23.732 30 16C30 8.268 23.732 2 16 2ZM16 25.015C11.029 25.015 6.985 20.971 6.985 16C6.985 11.029 11.029 6.985 16 6.985C20.971 6.985 25.015 11.029 25.015 16C25.015 20.971 20.971 25.015 16 25.015Z" fill="#A855F7"/>
<path d="M20.215 17C20.121 18.937 19.755 20.817 19.126 22.27C21.142 21.261 22.602 19.313 22.934 17H20.215Z" fill="#A855F7"/>
<path d="M11.7849 17H9.06494C9.39694 19.313 10.8579 21.261 12.8729 22.27C12.2449 20.817 11.8789 18.937 11.7849 17Z" fill="#A855F7"/>
</svg>
