<svg width="32" height="32" viewBox="0 0 32 32" fill="none" xmlns="http://www.w3.org/2000/svg">
<g clip-path="url(#clip0_16_308)">
<path d="M21.8126 5.85063C21.9176 7.85625 17.0626 9.25063 11.0194 9.27437C4.97568 9.25 0.125052 7.85687 0.228177 5.85063C0.340052 3.85875 5.19255 1.625 11.0213 1.615C16.8501 1.625 21.7026 3.85875 21.8126 5.85063Z" fill="#7F51F0"/>
<path d="M13.9 14.5269L13.9238 14.4056L13.9638 14.2806L13.9831 14.2181C14.231 13.4368 14.7255 12.757 15.3925 12.2806C15.7381 12.0354 16.1142 11.8365 16.5113 11.6888C18.1481 11.055 20.0494 10.3319 21.9538 9.68875C21.94 9.20125 21.925 8.71354 21.9088 8.22563L21.875 8.25C21.2269 8.74563 20.3188 9.17125 19.1781 9.52563C16.9963 10.2025 14.0925 10.5781 11.0231 10.5781C7.95376 10.5781 5.05063 10.2031 2.86813 9.52563C1.60876 9.13438 0.733759 8.68937 0.135634 8.22437C0.0856343 9.68271 0.0495926 11.141 0.0275093 12.5994C-0.00561573 14.5994 4.93751 16.2737 11.0231 16.2925C11.9075 16.2925 12.7669 16.2519 13.5913 16.1831C13.6651 15.626 13.7681 15.0732 13.9 14.5269Z" fill="#7F51F0"/>
<path d="M13.3457 19.3925V19.3563C13.3594 18.8131 13.3882 18.1688 13.4451 17.4925C12.6551 17.555 11.8444 17.5856 11.0207 17.585C7.9363 17.585 5.0163 17.1413 2.79943 16.3825C1.52005 15.945 0.625054 15.4569 5.42772e-05 14.9619C-0.00702906 16.4202 0.000262611 17.8785 0.0219293 19.3369C0.0613043 21.3331 5.00505 23.285 11.0219 23.3C11.8969 23.3 12.7494 23.2537 13.5676 23.175C13.3976 22.1831 13.3238 20.9169 13.3457 19.3925Z" fill="#7F51F0"/>
<path d="M15.4376 27.1737C14.7501 26.305 14.2344 25.4125 13.9101 24.5169C12.9498 24.621 11.9847 24.6727 11.0188 24.6719C7.97694 24.675 5.09382 24.1594 2.88257 23.3181C1.60632 22.8331 0.702568 22.3025 0.0700684 21.7763C0.107568 23.2346 0.159027 24.6929 0.224443 26.1513C0.340068 28.1413 5.19257 30.375 11.0213 30.385C13.4819 30.3806 15.7676 29.98 17.5969 29.3687C16.8087 28.7077 16.0856 27.9727 15.4376 27.1737Z" fill="#7F51F0"/>
<path d="M31.9963 19.4281V19.4156C31.9538 17.6962 31.7775 16.1462 31.4994 15.0506L31.4882 14.9931L31.4682 14.9306C31.2563 14.2562 30.6194 14.0094 30.3469 13.9038C28.5663 13.2163 26.4688 12.4175 24.4157 11.7431C24.2488 11.6903 24.0756 11.6604 23.9007 11.6544H23.8588H23.8169C23.6427 11.6604 23.4701 11.6901 23.3038 11.7425C21.2494 12.4175 19.1519 13.2138 17.3707 13.9044C17.0988 14.0094 16.4619 14.2569 16.25 14.9306L16.23 14.9931L16.2194 15.0463V15.0531C15.9419 16.1463 15.7657 17.6956 15.7232 19.4163V19.4281C15.6888 21.7894 15.9107 22.9394 16.0544 23.4212L16.0732 23.4894C16.2982 24.2112 16.7113 24.9538 17.3013 25.6956C17.9307 26.4869 18.7663 27.2919 19.7832 28.0869C20.8075 28.8914 21.9055 29.5974 23.0625 30.1956L23.0882 30.2075H23.0913C23.3314 30.3229 23.5943 30.3827 23.8607 30.3825C24.1289 30.3825 24.3936 30.3218 24.635 30.205L24.66 30.1931L24.6732 30.1863C25.8235 29.5893 26.9155 28.8863 27.935 28.0863C28.9544 27.2894 29.79 26.4844 30.42 25.6931C31.0094 24.9513 31.42 24.2094 31.6475 23.4869L31.66 23.445L31.6663 23.4188C31.805 22.9419 32.0313 21.7919 31.9963 19.4281ZM28.205 19.5844L23.76 24.25C23.6391 24.3771 23.4937 24.4785 23.3326 24.5481C23.1715 24.6177 22.998 24.654 22.8225 24.655H22.8169C22.6421 24.6552 22.469 24.6202 22.3079 24.5521C22.1469 24.484 22.0012 24.3843 21.8794 24.2588L19.5213 21.8294C19.2804 21.5812 19.148 21.2476 19.1532 20.9018C19.1583 20.556 19.3007 20.2265 19.5488 19.9856C19.7969 19.7448 20.1306 19.6124 20.4764 19.6175C20.8221 19.6227 21.1517 19.765 21.3925 20.0131L22.8063 21.47L26.3157 17.7825C26.556 17.54 26.8819 17.4014 27.2233 17.3964C27.5647 17.3915 27.8944 17.5206 28.1417 17.7561C28.3889 17.9916 28.534 18.3146 28.5457 18.6559C28.5575 18.9971 28.4349 19.3294 28.2044 19.5812L28.205 19.5844Z" fill="#7F51F0"/>
</g>
<defs>
<clipPath id="clip0_16_308">
<rect width="32" height="32" fill="#7F51F0"/>
</clipPath>
</defs>
</svg>
