<svg width="24" height="24" viewBox="0 0 24 24" fill="none" xmlns="http://www.w3.org/2000/svg">
<path d="M2.48109 8.18176C2.07103 8.18176 1.73865 8.51415 1.73865 8.92421V21.7575C1.73865 22.1676 2.07102 22.5 2.48109 22.5H5.45079C5.86076 22.5 6.19319 22.1676 6.19319 21.7575V8.92421C6.19319 8.51415 5.86076 8.18176 5.45079 8.18176H2.48109Z" fill="white"/>
<path d="M3.96594 1.5C2.62602 1.5 1.53979 2.58622 1.53979 3.9261C1.53979 5.26602 2.62602 6.35224 3.96594 6.35224C5.30581 6.35224 6.39204 5.26602 6.39204 3.9261C6.39205 2.58622 5.30581 1.5 3.96594 1.5Z" fill="white"/>
<path d="M12.5304 8.1818H9.58717C9.17711 8.1818 8.84473 8.51419 8.84473 8.92425V21.3996C8.84473 21.8097 9.17711 22.1421 9.58717 22.1421H12.5569C12.9669 22.1421 13.2993 21.8097 13.2993 21.3996V14.0549C13.2993 12.7223 14.3796 11.642 15.7122 11.642C17.0448 11.642 18.1251 12.7223 18.1251 14.0549V21.3996C18.1251 21.8097 18.4574 22.1421 18.8675 22.1421H21.7179C22.1279 22.1421 22.4603 21.8097 22.4603 21.3996V12.8883C22.4603 10.1718 20.2581 7.96973 17.5417 7.96973H16.8435C15.6879 7.96973 14.5899 8.47469 13.8378 9.35213L13.2728 10.0114V8.92426C13.2728 8.51418 12.9404 8.1818 12.5304 8.1818Z" fill="white"/>
</svg>
