<svg width="64" height="64" viewBox="0 0 64 64" fill="none" xmlns="http://www.w3.org/2000/svg">
<path d="M55.5418 16.2748C52.5118 12.3512 48.3863 9.41425 43.6871 7.83543C38.9878 6.2566 33.9259 6.10681 29.1415 7.405C24.3572 8.7032 20.0652 11.3911 16.8085 15.1286C13.5518 18.8662 11.4766 23.4857 10.8455 28.4027C10.2143 33.3197 11.0555 38.3135 13.2626 42.7525C15.4697 47.1914 18.9436 50.8761 23.245 53.3406C27.5464 55.8051 32.4821 56.9387 37.4277 56.5979C42.3734 56.2571 47.1069 54.4574 51.0296 51.4262C61.9792 42.9642 64.0007 27.2283 55.5418 16.2748Z" fill="#FF6C37"/>
<path d="M44.1584 22.4999L33.5902 33.1519L30.6038 30.0816C41.0051 19.6803 42.0483 20.6202 44.1584 22.4999Z" fill="white"/>
<path d="M33.5902 33.4433C33.4966 33.441 33.4073 33.4038 33.3396 33.3391L30.332 30.3315C30.2643 30.2614 30.2264 30.1677 30.2264 30.0703C30.2264 29.9728 30.2643 29.8792 30.332 29.8091C40.5869 19.5542 41.9865 20.0343 44.409 22.2274C44.4496 22.2598 44.482 22.3013 44.5038 22.3485C44.5255 22.3957 44.536 22.4472 44.5343 22.4992C44.55 22.601 44.5108 22.7052 44.4302 22.7709L33.862 33.3399C33.7879 33.4078 33.6908 33.4443 33.5902 33.4433ZM31.1254 30.0808L33.5902 32.5457L43.6156 22.5203C43.2695 22.0865 42.7755 21.7955 42.2283 21.7031C41.6811 21.6106 41.119 21.7231 40.6495 22.019C38.8324 22.8336 35.9086 25.3188 31.1254 30.0808Z" fill="#FF6C37"/>
<path d="M36.619 36.0968L33.7367 33.1519L44.3048 22.7083C47.1456 25.4864 42.9263 30.1239 36.619 36.0968Z" fill="white"/>
<path d="M36.619 36.4728C36.5265 36.4654 36.4388 36.429 36.3683 36.3686L33.4234 33.4863C33.3792 33.3792 33.3792 33.259 33.4234 33.1519C33.3921 33.064 33.3921 32.968 33.4234 32.8801L43.9915 22.312C44.065 22.2429 44.1621 22.2045 44.2629 22.2045C44.3638 22.2045 44.4608 22.2429 44.5343 22.312C44.8766 22.627 45.1469 23.012 45.3271 23.4408C45.5073 23.8696 45.593 24.3323 45.5784 24.7972C45.5784 27.6168 42.3616 31.1672 36.89 36.3475C36.8169 36.4198 36.7215 36.4642 36.619 36.4728ZM34.2795 33.1519L36.6393 35.511C40.8163 31.5635 44.8061 27.4907 44.8265 24.7337C44.8492 24.1493 44.656 23.5769 44.2837 23.1257L34.2795 33.1519Z" fill="#FF6C37"/>
<path d="M30.6868 30.1443L32.7757 32.2331C32.789 32.2449 32.7997 32.2594 32.807 32.2756C32.8143 32.2918 32.8181 32.3094 32.8181 32.3271C32.8181 32.3449 32.8143 32.3625 32.807 32.3787C32.7997 32.3949 32.789 32.4094 32.7757 32.4211L28.3684 33.361C28.2795 33.3802 28.1867 33.3698 28.1042 33.3314C28.0217 33.293 27.954 33.2286 27.9114 33.1482C27.8688 33.0678 27.8537 32.9756 27.8684 32.8858C27.883 32.7959 27.9266 32.7134 27.9925 32.6506L30.5615 30.1028C30.5615 30.1028 30.6453 30.1028 30.6868 30.1443Z" fill="white"/>
<path d="M28.2643 33.7785C28.1251 33.7767 27.9886 33.7393 27.8679 33.6698C27.7472 33.6003 27.6464 33.501 27.5751 33.3814C27.4947 33.2299 27.4656 33.0565 27.492 32.8871C27.5184 32.7177 27.5989 32.5614 27.7215 32.4415L30.2694 29.8725C30.3613 29.7904 30.4802 29.745 30.6034 29.745C30.7267 29.745 30.8456 29.7904 30.9375 29.8725L33.0263 31.9614C33.1501 32.0789 33.1987 32.2567 33.1517 32.4211C33.1047 32.5856 32.9668 32.7164 32.7969 32.7556L28.3896 33.6954L28.2643 33.7785ZM30.6038 30.604L28.2439 32.9639L32.1499 32.1282L30.6038 30.604Z" fill="#FF6C37"/>
<path d="M49.7773 16.6304C48.2656 15.172 45.8909 15.1109 44.3056 16.4871C42.7203 17.8632 42.4493 20.2254 43.6837 21.9251C44.9181 23.6247 47.2451 24.1009 49.0465 23.0216L46.2057 20.1808L49.7773 16.6304Z" fill="white"/>
<path d="M46.9577 23.9818C46.0892 23.9707 45.2432 23.7042 44.5251 23.2156C43.807 22.7271 43.2486 22.038 42.9194 21.2342C42.5904 20.4311 42.5041 19.5491 42.6711 18.6975C42.8382 17.8458 43.2513 17.0618 43.8592 16.4424C44.6954 15.6216 45.8204 15.1617 46.9922 15.1617C48.1639 15.1617 49.2889 15.6216 50.1251 16.4424C50.205 16.5098 50.2504 16.6092 50.2504 16.7142C50.2502 16.7658 50.2389 16.8168 50.2173 16.8637C50.1957 16.9106 50.1642 16.9523 50.1251 16.986L46.7415 20.1816L49.3105 22.709C49.3522 22.7488 49.3834 22.7981 49.4016 22.8527C49.4197 22.9074 49.4242 22.9656 49.4147 23.0223C49.4085 23.0771 49.3904 23.1298 49.3615 23.1768C49.3327 23.2238 49.2939 23.2638 49.2479 23.2941C48.5577 23.7255 47.7643 23.9636 46.9507 23.9834L46.9577 23.9818ZM46.9577 15.8777C45.4696 15.8855 44.1381 16.7808 43.5796 18.1491C43.0212 19.5174 43.3251 21.0925 44.3683 22.1436C44.8873 22.6655 45.5517 23.0185 46.2747 23.1565C46.9976 23.2944 47.7454 23.2108 48.42 22.9166L45.9552 20.4518C45.916 20.4204 45.8844 20.3807 45.8626 20.3355C45.8409 20.2903 45.8296 20.2407 45.8296 20.1906C45.8296 20.1404 45.8409 20.0909 45.8626 20.0457C45.8844 20.0004 45.916 19.9607 45.9552 19.9294L49.2134 16.65C48.5657 16.1536 47.7737 15.8829 46.9577 15.8777Z" fill="#FF6C37"/>
<path d="M49.84 16.6931L46.2684 20.2434L49.1092 23.0842C49.3951 22.9201 49.6613 22.7238 49.9026 22.4991C50.6472 21.7122 51.0568 20.6667 51.0451 19.5834C51.0334 18.5001 50.6013 17.4638 49.84 16.6931Z" fill="white"/>
<path d="M49.0457 23.3975C48.9988 23.4001 48.9519 23.392 48.9086 23.374C48.8652 23.356 48.8264 23.3284 48.7951 23.2934L45.9543 20.4526C45.9151 20.4212 45.8835 20.3815 45.8618 20.3363C45.84 20.2911 45.8287 20.2415 45.8287 20.1914C45.8287 20.1412 45.84 20.0917 45.8618 20.0465C45.8835 20.0012 45.9151 19.9615 45.9543 19.9302L49.5047 16.4424C49.539 16.3907 49.5856 16.3483 49.6402 16.319C49.6949 16.2896 49.756 16.2743 49.818 16.2743C49.88 16.2743 49.9411 16.2896 49.9958 16.319C50.0504 16.3483 50.097 16.3907 50.1313 16.4424C50.5481 16.8508 50.8792 17.3383 51.1053 17.8762C51.3313 18.4142 51.4478 18.9918 51.4478 19.5754C51.4478 20.1589 51.3313 20.7365 51.1053 21.2745C50.8792 21.8125 50.5481 22.2999 50.1313 22.7083C49.8854 22.9691 49.6041 23.194 49.2956 23.3764C49.2179 23.4155 49.1289 23.4231 49.0457 23.3975ZM46.7485 20.1816L49.1084 22.5415C49.2707 22.4277 49.4244 22.302 49.5682 22.1655C50.2619 21.4737 50.6526 20.5347 50.6545 19.555C50.6561 18.6782 50.3365 17.8312 49.7561 17.174L46.7485 20.1816Z" fill="#FF6C37"/>
<path d="M44.597 22.9385C44.3141 22.6729 43.9406 22.525 43.5526 22.525C43.1645 22.525 42.791 22.6729 42.5081 22.9385L33.0475 32.3781L34.6139 33.9657L44.6182 25.1935C44.7707 25.0472 44.8917 24.8713 44.9738 24.6766C45.0558 24.4818 45.0971 24.2724 45.0951 24.061C45.0931 23.8497 45.0479 23.6411 44.9623 23.4479C44.8766 23.2547 44.7523 23.0819 44.597 22.9385Z" fill="white"/>
<path d="M34.5301 34.3424C34.4365 34.3401 34.3471 34.3029 34.2795 34.2382L32.6919 32.6506C32.6242 32.5805 32.5863 32.4869 32.5863 32.3894C32.5863 32.2919 32.6242 32.1983 32.6919 32.1282L42.1533 22.7083C42.4258 22.4361 42.7738 22.252 43.1522 22.18C43.5306 22.108 43.9219 22.1513 44.2753 22.3044C44.6288 22.4574 44.9281 22.7131 45.1345 23.0383C45.3408 23.3636 45.4447 23.7433 45.4327 24.1283C45.4218 24.3896 45.359 24.6461 45.2477 24.8828C45.1365 25.1195 44.9792 25.3316 44.785 25.5067L34.7807 34.2789C34.708 34.3304 34.6186 34.3536 34.5301 34.3424ZM33.4234 32.378L34.4675 33.4432L44.2837 24.9005C44.5265 24.6891 44.6714 24.3867 44.6808 24.0648C44.6902 23.7429 44.5633 23.428 44.326 23.2087C44.1068 22.9905 43.8101 22.868 43.5009 22.868C43.1916 22.868 42.8949 22.9905 42.6757 23.2087L33.4234 32.378Z" fill="#FF6C37"/>
<path d="M25.7164 43.135C25.6897 43.1713 25.6753 43.2152 25.6753 43.2603C25.6753 43.3054 25.6897 43.3493 25.7164 43.3856L26.1339 45.2027C26.1506 45.3096 26.1348 45.4191 26.0884 45.5169C26.042 45.6147 25.9673 45.6962 25.8739 45.751C25.7808 45.8054 25.6729 45.8289 25.5656 45.818C25.4584 45.8072 25.3573 45.7626 25.277 45.6906L22.4159 42.9337L31.3346 33.9445H34.426L36.5148 36.0334C33.2564 38.8823 29.6232 41.2717 25.7164 43.135Z" fill="white"/>
<path d="M25.5284 46.2052C25.2919 46.2005 25.0585 46.1034 24.9018 45.9334L22.166 43.1976C22.1268 43.1663 22.0952 43.1265 22.0734 43.0813C22.0517 43.0361 22.0404 42.9866 22.0404 42.9364C22.0404 42.8862 22.0517 42.8367 22.0734 42.7915C22.0952 42.7463 22.1268 42.7065 22.166 42.6752L31.1465 33.6735C31.1968 33.6201 31.2625 33.5837 31.3345 33.5694H34.4463C34.5274 33.5407 34.6158 33.5407 34.6969 33.5694L36.7858 35.6582C36.8255 35.6949 36.8557 35.7406 36.8739 35.7915C36.892 35.8424 36.8975 35.8969 36.89 35.9504C36.8914 36.0023 36.8809 36.0538 36.8591 36.101C36.8374 36.1481 36.8051 36.1896 36.7646 36.2222L36.5978 36.3686C33.3262 39.0961 29.7268 41.4044 25.8832 43.2399L26.2803 44.9317C26.311 45.0622 26.3122 45.1979 26.2837 45.3289C26.2553 45.46 26.198 45.583 26.116 45.689C26.0339 45.7951 25.9293 45.8815 25.8096 45.9419C25.6899 46.0023 25.5583 46.0353 25.4242 46.0384L25.5284 46.2052ZM22.9806 42.9258L25.4446 45.411C25.4676 45.4315 25.4972 45.4428 25.528 45.4428C25.5588 45.4428 25.5885 45.4315 25.6114 45.411C25.6268 45.3897 25.635 45.3641 25.635 45.3378C25.635 45.3115 25.6268 45.2859 25.6114 45.2646L25.194 43.4475C25.1611 43.3171 25.1743 43.1793 25.2314 43.0575C25.2885 42.9357 25.386 42.8375 25.5073 42.7794C29.2475 40.9683 32.7541 38.7099 35.9501 36.0538L34.2372 34.3408H31.4387L22.9806 42.9258Z" fill="#FF6C37"/>
<path d="M20.2652 45.0774L22.354 42.9885L25.5708 46.2052L20.4539 45.8504C20.3661 45.8435 20.2826 45.8091 20.2155 45.752C20.1484 45.6948 20.1011 45.618 20.0802 45.5324C20.0594 45.4467 20.0661 45.3567 20.0995 45.2752C20.1328 45.1936 20.1911 45.1246 20.2659 45.0782L20.2652 45.0774Z" fill="white"/>
<path d="M25.6326 46.5185L20.5361 46.1637C20.2338 46.1355 19.9738 45.9287 19.8672 45.6523C19.7607 45.3758 19.8257 45.0476 20.0348 44.8267L22.1237 42.7379C22.1938 42.6701 22.2875 42.6323 22.3849 42.6323C22.4824 42.6323 22.576 42.6701 22.6461 42.7379L25.8417 45.9334C25.886 45.994 25.9098 46.0671 25.9098 46.1422C25.9098 46.2172 25.886 46.2903 25.8417 46.3509C25.7934 46.429 25.7195 46.4888 25.6326 46.5185ZM20.5361 45.3492L24.7131 45.6209L22.4159 43.4694L20.5361 45.3492Z" fill="#FF6C37"/>
<path d="M34.718 34.1967L30.4988 34.8444L32.9425 32.4219L34.718 34.1967Z" fill="white"/>
<path d="M30.4988 35.24C30.4287 35.2418 30.3596 35.2229 30.3001 35.1858C30.2407 35.1486 30.1935 35.0947 30.1644 35.0308C30.1199 34.9703 30.0959 34.8972 30.0959 34.8221C30.0959 34.747 30.1199 34.6739 30.1644 34.6134L32.5869 32.1697C32.6604 32.1006 32.7575 32.0622 32.8583 32.0622C32.9592 32.0622 33.0562 32.1006 33.1297 32.1697L34.9061 33.9445C34.9416 34.0008 34.9604 34.0659 34.9604 34.1325C34.9604 34.199 34.9416 34.2642 34.9061 34.3205C34.8887 34.389 34.8518 34.4512 34.8 34.4994C34.7482 34.5476 34.6836 34.5798 34.6139 34.5922L30.437 35.24H30.4988ZM32.9425 32.9631L31.5852 34.3205L33.9247 33.9656L32.9425 32.9631Z" fill="#FF6C37"/>
<path d="M34.7181 34.1951L31.7731 34.5711C31.6943 34.589 31.6118 34.581 31.5379 34.5483C31.464 34.5157 31.4026 34.46 31.3628 34.3897C31.323 34.3194 31.3069 34.2381 31.3169 34.1579C31.3269 34.0777 31.3624 34.0029 31.4183 33.9445L32.9433 32.4196L34.7181 34.1951Z" fill="white"/>
<path d="M31.6894 34.969C31.5529 34.9677 31.4192 34.9303 31.3018 34.8605C31.1845 34.7908 31.0877 34.6912 31.0213 34.5719C30.9415 34.4289 30.9106 34.2638 30.9332 34.1017C30.9559 33.9395 31.0308 33.7892 31.1466 33.6735L32.6716 32.1486C32.7451 32.0795 32.8421 32.0411 32.943 32.0411C33.0438 32.0411 33.1409 32.0795 33.2143 32.1486L34.9899 33.9242C35.0427 33.9742 35.0799 34.0385 35.0969 34.1092C35.1139 34.1799 35.11 34.2541 35.0857 34.3226C35.0614 34.3912 35.0178 34.4512 34.96 34.4955C34.9023 34.5397 34.833 34.5663 34.7604 34.5719L31.8366 34.9478L31.6894 34.969ZM31.6894 34.1959L33.9036 33.9242L32.9222 32.9428L31.669 34.1959H31.6894ZM49.8604 19.0952C49.821 19.0293 49.7589 18.9802 49.6856 18.9571C49.6124 18.934 49.5333 18.9385 49.4633 18.9699C49.4287 18.9874 49.398 19.0117 49.373 19.0413C49.3479 19.0709 49.3291 19.1052 49.3176 19.1422C49.2943 19.2169 49.3017 19.2977 49.3379 19.367C49.4844 19.6748 49.4437 20.039 49.2338 20.3069C49.2077 20.3327 49.1873 20.3636 49.1738 20.3977C49.1603 20.4319 49.1541 20.4684 49.1555 20.5051C49.1562 20.5785 49.1841 20.6491 49.2338 20.7032C49.2874 20.7244 49.347 20.7244 49.4006 20.7032C49.4492 20.7154 49.5003 20.7141 49.5482 20.6993C49.5961 20.6845 49.6391 20.6569 49.6724 20.6194C49.8444 20.4088 49.9533 20.1539 49.9866 19.8841C50.0198 19.6142 49.9761 19.3413 49.8604 19.0952Z" fill="#FF6C37"/>
</svg>
