<svg width="48" height="48" viewBox="0 0 48 48" fill="none" xmlns="http://www.w3.org/2000/svg">
<g clip-path="url(#clip0_16_279)">
<path d="M47.081 1.09788C46.9681 2.38776 46.436 4.00012 45.646 5.37062C44.7431 6.96685 42.4696 9.14353 40.1156 10.6753C38.9708 11.4331 37.6165 12.3199 37.1327 12.6423C35.8751 13.4808 34.1499 15.1415 33.1825 16.4475C32.2312 17.7374 31.0058 19.8334 31.0058 20.172C31.0058 20.4623 32.5214 21.5909 33.7307 22.1714C34.6336 22.6067 36.4556 23.042 36.649 22.8647C36.6974 22.8324 36.7619 22.123 36.8103 21.2846C36.8909 19.9463 36.9715 19.6561 37.5842 18.4146C38.4065 16.7538 39.1966 15.8509 41.5345 13.9322C43.9208 11.9652 44.9043 11.0139 45.8233 9.75623C47.4196 7.62792 48 5.9027 48 3.46804C48 1.85568 47.6776 0.24333 47.3067 0.00147629C47.2261 -0.0307713 47.1294 0.452936 47.081 1.09788Z" fill="#A855F7"/>
<path d="M1.11273 1.24297C0.35492 2.79084 0.000201663 4.45156 0.000201663 6.5315C-0.0159219 9.99806 1.35458 12.9809 4.03109 15.2866C5.32097 16.3991 7.804 17.6568 9.52922 18.0598C10.1742 18.2211 10.7385 18.4146 10.7869 18.4791C10.932 18.737 9.04551 18.6242 7.46541 18.3017C5.72406 17.947 3.78924 17.0602 2.51548 16.0444C1.35458 15.1254 1.25784 15.1898 1.83829 16.4959C3.19266 19.4626 5.30485 21.3813 8.02973 22.0907C9.98068 22.6067 12.9152 22.5261 15.0274 21.9134C15.6078 21.736 15.3176 22.1069 14.5598 22.4938C12.4315 23.5741 9.239 23.8966 6.56249 23.3C6.14328 23.2033 5.77243 23.1549 5.74019 23.2033C5.57895 23.3645 7.23968 24.9446 8.27158 25.6379C10.5934 27.1858 13.6568 27.218 17.0428 25.7669C17.7684 25.4606 18.4455 25.1703 18.5584 25.122C19.0421 24.9123 18.4939 25.5895 17.6716 26.2184C16.1721 27.347 14.2857 28.1371 12.5443 28.3467C10.8352 28.5724 10.7869 28.6691 12.0606 29.3141C14.9951 30.7813 18.2843 30.4911 21.251 28.4757C21.9121 28.0242 22.5087 27.6534 22.5571 27.6534C22.7505 27.6534 22.1701 28.4595 21.3478 29.3302C20.3159 30.3944 19.026 31.3295 17.9135 31.781C17.4781 31.9422 17.1395 32.1357 17.1395 32.2002C17.1395 32.442 18.0586 32.571 19.7193 32.571C21.7831 32.571 22.686 32.2969 24.3629 31.1844C25.0078 30.7491 25.5722 30.3944 25.6205 30.3944C25.6689 30.3944 25.4432 30.8781 25.1046 31.4746C24.766 32.0873 24.0404 33.474 23.46 34.5865C21.509 38.3755 19.7193 40.6812 17.3169 42.5031C15.9141 43.5512 13.6246 44.6798 12.2219 45.0023C10.545 45.3893 10.545 45.3893 11.0126 45.6311C11.9155 46.0987 13.9148 46.405 15.5111 46.3083C16.3656 46.2599 17.2363 46.1793 17.462 46.1148C17.849 46.0181 17.849 46.0181 17.3814 46.4212C17.1234 46.663 16.6075 46.9371 16.2689 47.0339L15.64 47.2273L16.1076 47.3563C16.6075 47.5014 18.3327 47.2757 19.6226 46.9049C21.7831 46.2922 24.7337 44.3412 24.9756 43.3738C25.024 43.1481 24.9272 42.8095 24.6531 42.4064C24.2339 41.7776 24.0565 40.391 24.3951 40.391C24.4919 40.391 24.5564 40.5522 24.5564 40.7618C24.5564 41.2939 25.5238 42.8417 26.0397 43.1158C26.4267 43.3416 26.4912 43.3416 26.7975 43.0513C27.1361 42.7611 27.1523 42.7611 27.6037 43.1965L28.0713 43.6479L27.6843 44.2122C27.4747 44.5347 27.2974 44.9378 27.2974 45.099C27.2974 45.873 28.297 46.8404 29.071 46.8404C29.4257 46.8404 29.4096 46.8404 29.0065 46.3406C28.5711 45.8246 28.5066 45.5989 28.7162 45.2925C28.942 44.9539 29.3773 44.9217 29.7643 45.2442C30.2964 45.6472 30.3608 45.6311 30.3608 45.0507C30.3608 44.6315 30.4092 44.567 30.7317 44.6153C30.9897 44.6476 31.1025 44.7927 31.1348 45.099C31.1993 45.6634 31.3766 45.6795 31.6185 45.1474C31.9087 44.5025 31.8442 44.0026 31.425 43.5028C31.1025 43.132 30.8768 43.0352 30.1029 42.9707C29.1677 42.8901 29.1516 42.8901 28.942 42.2452C28.4583 40.8424 28.7324 38.698 29.4741 37.8596L29.861 37.4081L29.8771 38.0853C29.8771 39.0043 30.4737 40.52 31.038 41.1004C31.4734 41.5357 31.5217 41.5519 31.812 41.2778C32.3924 40.7618 33.0535 41.3261 32.6343 41.9872C32.5375 42.1323 32.5537 42.3258 32.6665 42.5193C32.8922 42.874 33.0535 42.8901 33.3598 42.5676C33.6662 42.2613 33.908 42.3742 34.3756 43.0513C34.7948 43.664 35.0367 43.7769 35.0367 43.3254C35.0528 42.9385 35.4236 42.487 35.73 42.487C36.1008 42.487 36.3588 43.0513 36.2298 43.5673C36.1331 43.9865 36.1492 44.0026 36.4072 43.7608C36.8103 43.3738 36.907 42.2613 36.5845 41.7776C36.2459 41.2455 35.8106 41.0359 34.9077 40.8908C34.2466 40.8102 34.1338 40.7296 33.7952 40.0846C33.1502 38.8431 33.376 36.7148 34.3434 35.1669C36.0525 32.4098 40.5187 29.7494 43.4532 29.7494C44.469 29.7494 45.3074 30.1041 45.388 30.5556L45.4364 30.9103L45.8717 30.5717C46.694 29.9107 46.5973 28.4595 45.6782 27.9275C45.4041 27.7662 45.1945 27.4921 45.1945 27.3309C45.1945 27.1535 45.0333 26.8794 44.8398 26.7021C44.1142 26.0088 40.8089 25.0736 39.1159 25.0736C38.6967 25.0736 37.6648 24.9607 36.8586 24.8317C32.6665 24.1545 29.8933 22.1391 26.4912 17.3343C24.5725 14.6255 23.4277 13.4001 22.1217 12.6101C20.2353 11.4976 18.768 11.1912 13.673 10.8849C12.1735 10.7881 10.6095 10.643 10.2225 10.5463C9.36799 10.3528 9.22287 10.4495 9.73883 10.8687C10.4966 11.4976 12.7539 12.4972 15.2047 13.3195C20.1708 14.9641 21.8476 16.1411 25.0723 20.2849C27.0072 22.7679 29.2 25.1058 30.8123 26.3957C31.4573 26.9117 31.9248 27.3309 31.8281 27.3309C31.4734 27.3309 29.9739 26.6537 29.1032 26.1055C27.9907 25.3961 26.5234 23.9933 24.3468 21.5264C20.8802 17.5923 19.3807 16.5281 15.5272 15.3188C9.73883 13.4808 8.56181 12.9325 6.369 11.0945C4.86951 9.82071 3.20879 7.3538 2.48323 5.30611C2.04789 4.06459 1.78992 2.0169 1.9189 0.920502C2.06402 -0.256516 1.78992 -0.159775 1.11273 1.24297ZM43.8885 27.4115C43.9046 27.4437 43.8885 27.5405 43.824 27.6372C43.6628 27.9113 43.163 27.8468 42.7599 27.4921L42.3729 27.1535L43.0985 27.2664C43.5015 27.3148 43.8563 27.3954 43.8885 27.4115Z" fill="#A855F7"/>
</g>
<defs>
<clipPath id="clip0_16_279">
<rect width="48" height="47.4009" fill="white"/>
</clipPath>
</defs>
</svg>
