<svg width="57" height="64" viewBox="0 0 57 64" fill="none" xmlns="http://www.w3.org/2000/svg">
<g clip-path="url(#clip0_16_363)">
<path d="M56.1664 32.0057C56.1664 28.285 51.5069 24.7588 44.363 22.5721C46.0116 15.2909 45.2789 9.49795 42.0504 7.64329C41.3062 7.20824 40.4361 7.00217 39.4859 7.00217V9.55519C40.0126 9.55519 40.4361 9.65823 40.791 9.85285C42.348 10.7458 43.0235 14.146 42.4969 18.5194C42.3709 19.5955 42.1649 20.7289 41.913 21.8852C39.6691 21.3357 37.2191 20.9121 34.6432 20.6373C33.0976 18.5194 31.4949 16.596 29.8806 14.9131C33.6128 11.4442 37.1161 9.54374 39.4974 9.54374V6.99072C36.349 6.99072 32.2276 9.23463 28.0603 13.1271C23.893 9.25753 19.7716 7.03652 16.6232 7.03652V9.58953C18.9931 9.58953 22.5078 11.4785 26.24 14.9245C24.6372 16.6075 23.0344 18.5194 21.5118 20.6373C18.9244 20.9121 16.4744 21.3357 14.2305 21.8967C13.9672 20.7518 13.7726 19.6413 13.6352 18.5766C13.0971 14.2033 13.7611 10.8031 15.3067 9.89864C15.6501 9.69257 16.0966 9.60098 16.6232 9.60098V7.04797C15.6616 7.04797 14.7915 7.25404 14.0359 7.68908C10.8188 9.54374 10.0976 15.3252 11.7576 22.5836C4.63665 24.7817 0 28.2964 0 32.0057C0 35.7265 4.65954 39.2526 11.8034 41.4393C10.1548 48.7205 10.8875 54.5135 14.116 56.3682C14.8602 56.8032 15.7303 57.0093 16.6919 57.0093C19.8403 57.0093 23.9617 54.7654 28.129 50.8729C32.2963 54.7425 36.4177 56.9635 39.5661 56.9635C40.5277 56.9635 41.3978 56.7574 42.1534 56.3224C45.3705 54.4677 46.0917 48.6862 44.4317 41.4278C51.5298 39.2412 56.1664 35.715 56.1664 32.0057ZM41.2604 24.3696C40.8368 25.8464 40.3102 27.3691 39.7149 28.8917C39.2455 27.9758 38.7532 27.06 38.2151 26.1441C37.6885 25.2282 37.1275 24.3352 36.5666 23.4651C38.1922 23.7055 39.7607 24.0032 41.2604 24.3696ZM36.017 36.5622C35.124 38.1078 34.2082 39.5732 33.2579 40.9356C31.5521 41.0844 29.8234 41.1645 28.0832 41.1645C26.3545 41.1645 24.6258 41.0844 22.9314 40.947C21.9811 39.5846 21.0538 38.1307 20.1608 36.5966C19.2907 35.0968 18.5008 33.5742 17.7795 32.0401C18.4893 30.506 19.2907 28.9719 20.1494 27.4721C21.0424 25.9266 21.9582 24.4612 22.9085 23.0988C24.6143 22.9499 26.343 22.8698 28.0832 22.8698C29.8119 22.8698 31.5407 22.9499 33.235 23.0873C34.1853 24.4497 35.1126 25.9037 36.0056 27.4378C36.8757 28.9375 37.6656 30.4602 38.3869 31.9943C37.6656 33.5284 36.8757 35.0625 36.017 36.5622ZM39.7149 35.0739C40.3331 36.608 40.8597 38.1421 41.2948 39.6304C39.795 39.9968 38.2151 40.3059 36.578 40.5463C37.139 39.6648 37.7 38.7603 38.2266 37.833C38.7532 36.9171 39.2455 35.9898 39.7149 35.0739ZM28.1061 47.2895C27.0414 46.1904 25.9767 44.9654 24.9234 43.626C25.9538 43.6718 27.007 43.7061 28.0718 43.7061C29.1479 43.7061 30.2126 43.6832 31.2544 43.626C30.2241 44.9654 29.1594 46.1904 28.1061 47.2895ZM19.5884 40.5463C17.9627 40.3059 16.3943 40.0082 14.8945 39.6419C15.3181 38.165 15.8447 36.6424 16.4401 35.1197C16.9095 36.0356 17.4017 36.9515 17.9398 37.8674C18.4779 38.7832 19.0274 39.6762 19.5884 40.5463ZM28.0489 16.722C29.1136 17.821 30.1783 19.046 31.2315 20.3855C30.2012 20.3397 29.1479 20.3053 28.0832 20.3053C27.007 20.3053 25.9423 20.3282 24.9005 20.3855C25.9309 19.046 26.9956 17.821 28.0489 16.722ZM19.577 23.4651C19.016 24.3467 18.455 25.2511 17.9284 26.1784C17.4017 27.0943 16.9095 28.0102 16.4401 28.9261C15.8218 27.392 15.2952 25.8579 14.8602 24.3696C16.3599 24.0147 17.9398 23.7055 19.577 23.4651ZM9.21605 37.7987C5.16328 36.0699 2.54157 33.8031 2.54157 32.0057C2.54157 30.2083 5.16328 27.93 9.21605 26.2128C10.2006 25.7892 11.2768 25.4114 12.3873 25.0565C13.0399 27.3004 13.8985 29.6359 14.9632 32.0286C13.9099 34.4099 13.0628 36.734 12.4216 38.9664C11.2882 38.6115 10.2121 38.2223 9.21605 37.7987ZM15.3754 54.1586C13.8184 53.2656 13.1429 49.8654 13.6695 45.4921C13.7955 44.4159 14.0015 43.2825 14.2534 42.1262C16.4973 42.6757 18.9473 43.0993 21.5232 43.3741C23.0688 45.4921 24.6715 47.4154 26.2858 49.0983C22.5536 52.5672 19.0503 54.4677 16.669 54.4677C16.1539 54.4563 15.7188 54.3532 15.3754 54.1586ZM42.5312 45.4348C43.0693 49.8082 42.4053 53.2084 40.8597 54.1128C40.5163 54.3189 40.0698 54.4105 39.5432 54.4105C37.1733 54.4105 33.6586 52.5215 29.9264 49.0755C31.5292 47.3925 33.132 45.4806 34.6547 43.3626C37.242 43.0879 39.692 42.6643 41.9359 42.1033C42.1992 43.2596 42.4053 44.3701 42.5312 45.4348ZM46.9389 37.7987C45.9543 38.2223 44.8782 38.6001 43.7677 38.955C43.1151 36.7111 42.2565 34.3756 41.1917 31.9828C42.245 29.6015 43.0922 27.2775 43.7333 25.045C44.8667 25.3999 45.9429 25.7892 46.9503 26.2128C51.0031 27.9415 53.6248 30.2083 53.6248 32.0057C53.6134 33.8031 50.9917 36.0814 46.9389 37.7987Z" fill="#61DAFB"/>
<path d="M28.0718 37.2377C30.9613 37.2377 33.3038 34.8952 33.3038 32.0057C33.3038 29.1162 30.9613 26.7737 28.0718 26.7737C25.1823 26.7737 22.8398 29.1162 22.8398 32.0057C22.8398 34.8952 25.1823 37.2377 28.0718 37.2377Z" fill="#61DAFB"/>
</g>
<defs>
<clipPath id="clip0_16_363">
<rect width="56.1664" height="64" fill="white"/>
</clipPath>
</defs>
</svg>
